<mxfile host="app.diagrams.net" modified="2023-11-30T12:29:40.137Z" agent="Mozilla/5.0 (Windows NT 10.0; Win64; x64) AppleWebKit/537.36 (KHTML, like Gecko) Chrome/119.0.0.0 Safari/537.36" etag="lPul6_RhO-a_qbokjpb0" version="22.1.5" type="device">
  <diagram name="Page-1" id="13RSXxDwKWg2uJ1gkcN4">
    <mxGraphModel dx="1434" dy="790" grid="1" gridSize="10" guides="1" tooltips="1" connect="1" arrows="1" fold="1" page="1" pageScale="1" pageWidth="1169" pageHeight="827" math="1" shadow="0">
      <root>
        <mxCell id="0" />
        <mxCell id="1" parent="0" />
        <mxCell id="4-2N636Du5SaeoPiZ8_P-4" value="" style="shape=partialRectangle;whiteSpace=wrap;html=1;bottom=1;right=1;left=1;top=0;fillColor=none;routingCenterX=-0.5;direction=south;" vertex="1" parent="1">
          <mxGeometry x="240" y="150" width="20" height="160" as="geometry" />
        </mxCell>
        <mxCell id="4-2N636Du5SaeoPiZ8_P-5" value="&lt;font style=&quot;font-size: 20px;&quot;&gt;$$a_{11}$$&lt;/font&gt;" style="text;html=1;strokeColor=none;fillColor=none;align=center;verticalAlign=middle;whiteSpace=wrap;rounded=0;" vertex="1" parent="1">
          <mxGeometry x="248.5" y="150" width="70" height="50" as="geometry" />
        </mxCell>
        <mxCell id="4-2N636Du5SaeoPiZ8_P-6" value="&lt;font style=&quot;font-size: 20px;&quot;&gt;$$a_{12}$$&lt;/font&gt;" style="text;html=1;strokeColor=none;fillColor=none;align=center;verticalAlign=middle;whiteSpace=wrap;rounded=0;" vertex="1" parent="1">
          <mxGeometry x="323.5" y="150" width="70" height="50" as="geometry" />
        </mxCell>
        <mxCell id="4-2N636Du5SaeoPiZ8_P-7" value="&lt;font style=&quot;font-size: 20px;&quot;&gt;$$a_{21}$$&lt;/font&gt;" style="text;html=1;strokeColor=none;fillColor=none;align=center;verticalAlign=middle;whiteSpace=wrap;rounded=0;" vertex="1" parent="1">
          <mxGeometry x="248.5" y="200" width="70" height="50" as="geometry" />
        </mxCell>
        <mxCell id="4-2N636Du5SaeoPiZ8_P-8" value="&lt;font style=&quot;font-size: 20px;&quot;&gt;$$a_{22}$$&lt;/font&gt;" style="text;html=1;strokeColor=none;fillColor=none;align=center;verticalAlign=middle;whiteSpace=wrap;rounded=0;" vertex="1" parent="1">
          <mxGeometry x="323.5" y="200" width="70" height="50" as="geometry" />
        </mxCell>
        <mxCell id="4-2N636Du5SaeoPiZ8_P-9" value="&lt;font style=&quot;font-size: 20px;&quot;&gt;$$a_{31}$$&lt;/font&gt;" style="text;html=1;strokeColor=none;fillColor=none;align=center;verticalAlign=middle;whiteSpace=wrap;rounded=0;" vertex="1" parent="1">
          <mxGeometry x="248.5" y="260" width="70" height="50" as="geometry" />
        </mxCell>
        <mxCell id="4-2N636Du5SaeoPiZ8_P-10" value="&lt;font style=&quot;font-size: 20px;&quot;&gt;$$a_{32}$$&lt;/font&gt;" style="text;html=1;strokeColor=none;fillColor=none;align=center;verticalAlign=middle;whiteSpace=wrap;rounded=0;" vertex="1" parent="1">
          <mxGeometry x="323.5" y="260" width="70" height="50" as="geometry" />
        </mxCell>
        <mxCell id="4-2N636Du5SaeoPiZ8_P-11" value="" style="shape=partialRectangle;whiteSpace=wrap;html=1;bottom=1;right=1;left=1;top=0;fillColor=none;routingCenterX=-0.5;direction=north;" vertex="1" parent="1">
          <mxGeometry x="384.5" y="150" width="20" height="160" as="geometry" />
        </mxCell>
        <mxCell id="4-2N636Du5SaeoPiZ8_P-12" value="&lt;font style=&quot;font-size: 20px;&quot;&gt;$$b_{11}$$&lt;/font&gt;" style="text;html=1;strokeColor=none;fillColor=none;align=center;verticalAlign=middle;whiteSpace=wrap;rounded=0;" vertex="1" parent="1">
          <mxGeometry x="454.5" y="179" width="70" height="50" as="geometry" />
        </mxCell>
        <mxCell id="4-2N636Du5SaeoPiZ8_P-13" value="&lt;font style=&quot;font-size: 20px;&quot;&gt;$$b_{12}$$&lt;/font&gt;" style="text;html=1;strokeColor=none;fillColor=none;align=center;verticalAlign=middle;whiteSpace=wrap;rounded=0;" vertex="1" parent="1">
          <mxGeometry x="504.5" y="179" width="70" height="50" as="geometry" />
        </mxCell>
        <mxCell id="4-2N636Du5SaeoPiZ8_P-14" value="&lt;font style=&quot;font-size: 20px;&quot;&gt;$$b_{13}$$&lt;/font&gt;" style="text;html=1;strokeColor=none;fillColor=none;align=center;verticalAlign=middle;whiteSpace=wrap;rounded=0;" vertex="1" parent="1">
          <mxGeometry x="574.5" y="179" width="70" height="50" as="geometry" />
        </mxCell>
        <mxCell id="4-2N636Du5SaeoPiZ8_P-15" value="&lt;font style=&quot;font-size: 20px;&quot;&gt;$$b_{14}$$&lt;/font&gt;" style="text;html=1;strokeColor=none;fillColor=none;align=center;verticalAlign=middle;whiteSpace=wrap;rounded=0;" vertex="1" parent="1">
          <mxGeometry x="634.5" y="179" width="70" height="50" as="geometry" />
        </mxCell>
        <mxCell id="4-2N636Du5SaeoPiZ8_P-16" value="&lt;font style=&quot;font-size: 20px;&quot;&gt;$$b_{21}$$&lt;/font&gt;" style="text;html=1;strokeColor=none;fillColor=none;align=center;verticalAlign=middle;whiteSpace=wrap;rounded=0;" vertex="1" parent="1">
          <mxGeometry x="454.5" y="229" width="70" height="50" as="geometry" />
        </mxCell>
        <mxCell id="4-2N636Du5SaeoPiZ8_P-17" value="&lt;font style=&quot;font-size: 20px;&quot;&gt;$$b_{22}$$&lt;/font&gt;" style="text;html=1;strokeColor=none;fillColor=none;align=center;verticalAlign=middle;whiteSpace=wrap;rounded=0;" vertex="1" parent="1">
          <mxGeometry x="504.5" y="229" width="70" height="50" as="geometry" />
        </mxCell>
        <mxCell id="4-2N636Du5SaeoPiZ8_P-18" value="&lt;font style=&quot;font-size: 20px;&quot;&gt;$$b_{23}$$&lt;/font&gt;" style="text;html=1;strokeColor=none;fillColor=none;align=center;verticalAlign=middle;whiteSpace=wrap;rounded=0;" vertex="1" parent="1">
          <mxGeometry x="574.5" y="229" width="70" height="50" as="geometry" />
        </mxCell>
        <mxCell id="4-2N636Du5SaeoPiZ8_P-19" value="&lt;font style=&quot;font-size: 20px;&quot;&gt;$$b_{44}$$&lt;/font&gt;" style="text;html=1;strokeColor=none;fillColor=none;align=center;verticalAlign=middle;whiteSpace=wrap;rounded=0;" vertex="1" parent="1">
          <mxGeometry x="634.5" y="229" width="70" height="50" as="geometry" />
        </mxCell>
        <mxCell id="4-2N636Du5SaeoPiZ8_P-20" value="" style="shape=partialRectangle;whiteSpace=wrap;html=1;bottom=1;right=1;left=1;top=0;fillColor=none;routingCenterX=-0.5;direction=south;" vertex="1" parent="1">
          <mxGeometry x="449.5" y="180" width="20" height="104" as="geometry" />
        </mxCell>
        <mxCell id="4-2N636Du5SaeoPiZ8_P-21" value="" style="shape=partialRectangle;whiteSpace=wrap;html=1;bottom=1;right=1;left=1;top=0;fillColor=none;routingCenterX=-0.5;direction=north;" vertex="1" parent="1">
          <mxGeometry x="694.5" y="173" width="20" height="104" as="geometry" />
        </mxCell>
        <mxCell id="4-2N636Du5SaeoPiZ8_P-22" value="" style="rounded=0;whiteSpace=wrap;html=1;fillColor=#dae8fc;strokeColor=#6c8ebf;opacity=40;" vertex="1" parent="1">
          <mxGeometry x="254.5" y="160" width="130" height="40" as="geometry" />
        </mxCell>
        <mxCell id="4-2N636Du5SaeoPiZ8_P-23" value="" style="rounded=0;whiteSpace=wrap;html=1;fillColor=#dae8fc;strokeColor=#6c8ebf;opacity=40;direction=south;" vertex="1" parent="1">
          <mxGeometry x="469.5" y="180" width="40" height="100" as="geometry" />
        </mxCell>
        <mxCell id="4-2N636Du5SaeoPiZ8_P-24" value="" style="shape=partialRectangle;whiteSpace=wrap;html=1;bottom=1;right=1;left=1;top=0;fillColor=none;routingCenterX=-0.5;direction=south;" vertex="1" parent="1">
          <mxGeometry x="126" y="362" width="20" height="160" as="geometry" />
        </mxCell>
        <mxCell id="4-2N636Du5SaeoPiZ8_P-25" value="&lt;font style=&quot;font-size: 20px;&quot;&gt;$$a_{11}b_{11}+a_{12}b_{21}$$&lt;/font&gt;" style="text;html=1;strokeColor=none;fillColor=none;align=center;verticalAlign=middle;whiteSpace=wrap;rounded=0;" vertex="1" parent="1">
          <mxGeometry x="150" y="360" width="150" height="50" as="geometry" />
        </mxCell>
        <mxCell id="4-2N636Du5SaeoPiZ8_P-44" value="" style="shape=partialRectangle;whiteSpace=wrap;html=1;bottom=1;right=1;left=1;top=0;fillColor=none;routingCenterX=-0.5;direction=north;" vertex="1" parent="1">
          <mxGeometry x="820" y="360" width="20" height="160" as="geometry" />
        </mxCell>
        <mxCell id="4-2N636Du5SaeoPiZ8_P-46" value="" style="rounded=0;whiteSpace=wrap;html=1;fillColor=#fff2cc;strokeColor=#d6b656;opacity=40;" vertex="1" parent="1">
          <mxGeometry x="255" y="209" width="130" height="40" as="geometry" />
        </mxCell>
        <mxCell id="4-2N636Du5SaeoPiZ8_P-48" value="" style="rounded=0;whiteSpace=wrap;html=1;fillColor=#fff2cc;strokeColor=#d6b656;opacity=40;direction=south;" vertex="1" parent="1">
          <mxGeometry x="519.5" y="179" width="40" height="100" as="geometry" />
        </mxCell>
        <mxCell id="4-2N636Du5SaeoPiZ8_P-49" value="" style="rounded=0;whiteSpace=wrap;html=1;fillColor=#f8cecc;strokeColor=#b85450;opacity=40;" vertex="1" parent="1">
          <mxGeometry x="255" y="265" width="130" height="40" as="geometry" />
        </mxCell>
        <mxCell id="4-2N636Du5SaeoPiZ8_P-50" value="" style="rounded=0;whiteSpace=wrap;html=1;fillColor=#f8cecc;strokeColor=#b85450;opacity=40;direction=south;" vertex="1" parent="1">
          <mxGeometry x="584.5" y="179" width="40" height="100" as="geometry" />
        </mxCell>
        <mxCell id="4-2N636Du5SaeoPiZ8_P-52" value="&lt;font style=&quot;font-size: 20px;&quot;&gt;$$a_{11}b_{12}+a_{12}b_{22}$$&lt;/font&gt;" style="text;html=1;strokeColor=none;fillColor=none;align=center;verticalAlign=middle;whiteSpace=wrap;rounded=0;" vertex="1" parent="1">
          <mxGeometry x="323.5" y="360" width="150" height="50" as="geometry" />
        </mxCell>
        <mxCell id="4-2N636Du5SaeoPiZ8_P-53" value="&lt;font style=&quot;font-size: 20px;&quot;&gt;$$a_{11}b_{13}+a_{12}b_{23}$$&lt;/font&gt;" style="text;html=1;strokeColor=none;fillColor=none;align=center;verticalAlign=middle;whiteSpace=wrap;rounded=0;" vertex="1" parent="1">
          <mxGeometry x="488" y="360" width="150" height="50" as="geometry" />
        </mxCell>
        <mxCell id="4-2N636Du5SaeoPiZ8_P-54" value="&lt;font style=&quot;font-size: 20px;&quot;&gt;$$a_{11}b_{14}+a_{12}b_{44}$$&lt;/font&gt;" style="text;html=1;strokeColor=none;fillColor=none;align=center;verticalAlign=middle;whiteSpace=wrap;rounded=0;" vertex="1" parent="1">
          <mxGeometry x="660" y="360" width="150" height="50" as="geometry" />
        </mxCell>
        <mxCell id="4-2N636Du5SaeoPiZ8_P-56" value="&lt;font style=&quot;font-size: 20px;&quot;&gt;$$a_{21}b_{11}+a_{22}b_{21}$$&lt;/font&gt;" style="text;html=1;strokeColor=none;fillColor=none;align=center;verticalAlign=middle;whiteSpace=wrap;rounded=0;" vertex="1" parent="1">
          <mxGeometry x="150.5" y="416" width="150" height="50" as="geometry" />
        </mxCell>
        <mxCell id="4-2N636Du5SaeoPiZ8_P-57" value="&lt;font style=&quot;font-size: 20px;&quot;&gt;$$a_{21}b_{12}+a_{22}b_{22}$$&lt;/font&gt;" style="text;html=1;strokeColor=none;fillColor=none;align=center;verticalAlign=middle;whiteSpace=wrap;rounded=0;" vertex="1" parent="1">
          <mxGeometry x="319.5" y="417" width="150" height="50" as="geometry" />
        </mxCell>
        <mxCell id="4-2N636Du5SaeoPiZ8_P-58" value="&lt;font style=&quot;font-size: 20px;&quot;&gt;$$a_{21}b_{13}+a_{22}b_{23}$$&lt;/font&gt;" style="text;html=1;strokeColor=none;fillColor=none;align=center;verticalAlign=middle;whiteSpace=wrap;rounded=0;" vertex="1" parent="1">
          <mxGeometry x="488.5" y="416" width="150" height="50" as="geometry" />
        </mxCell>
        <mxCell id="4-2N636Du5SaeoPiZ8_P-59" value="&lt;font style=&quot;font-size: 20px;&quot;&gt;$$a_{21}b_{14}+a_{22}b_{44}$$&lt;/font&gt;" style="text;html=1;strokeColor=none;fillColor=none;align=center;verticalAlign=middle;whiteSpace=wrap;rounded=0;" vertex="1" parent="1">
          <mxGeometry x="660.5" y="416" width="150" height="50" as="geometry" />
        </mxCell>
        <mxCell id="4-2N636Du5SaeoPiZ8_P-60" value="&lt;font style=&quot;font-size: 20px;&quot;&gt;$$a_{31}b_{11}+a_{32}b_{21}$$&lt;/font&gt;" style="text;html=1;strokeColor=none;fillColor=none;align=center;verticalAlign=middle;whiteSpace=wrap;rounded=0;" vertex="1" parent="1">
          <mxGeometry x="150.5" y="470" width="150" height="50" as="geometry" />
        </mxCell>
        <mxCell id="4-2N636Du5SaeoPiZ8_P-61" value="&lt;font style=&quot;font-size: 20px;&quot;&gt;$$a_{31}b_{12}+a_{32}b_{22}$$&lt;/font&gt;" style="text;html=1;strokeColor=none;fillColor=none;align=center;verticalAlign=middle;whiteSpace=wrap;rounded=0;" vertex="1" parent="1">
          <mxGeometry x="323.5" y="470" width="150" height="50" as="geometry" />
        </mxCell>
        <mxCell id="4-2N636Du5SaeoPiZ8_P-62" value="&lt;font style=&quot;font-size: 20px;&quot;&gt;$$a_{31}b_{13}+a_{32}b_{23}$$&lt;/font&gt;" style="text;html=1;strokeColor=none;fillColor=none;align=center;verticalAlign=middle;whiteSpace=wrap;rounded=0;" vertex="1" parent="1">
          <mxGeometry x="488.5" y="470" width="150" height="50" as="geometry" />
        </mxCell>
        <mxCell id="4-2N636Du5SaeoPiZ8_P-63" value="&lt;font style=&quot;font-size: 20px;&quot;&gt;$$a_{31}b_{14}+a_{32}b_{44}$$&lt;/font&gt;" style="text;html=1;strokeColor=none;fillColor=none;align=center;verticalAlign=middle;whiteSpace=wrap;rounded=0;" vertex="1" parent="1">
          <mxGeometry x="660.5" y="470" width="150" height="50" as="geometry" />
        </mxCell>
        <mxCell id="4-2N636Du5SaeoPiZ8_P-65" value="" style="rounded=0;whiteSpace=wrap;html=1;fillColor=#dae8fc;strokeColor=#6c8ebf;opacity=40;" vertex="1" parent="1">
          <mxGeometry x="140" y="370" width="170" height="40" as="geometry" />
        </mxCell>
        <mxCell id="4-2N636Du5SaeoPiZ8_P-66" value="" style="rounded=0;whiteSpace=wrap;html=1;fillColor=#fff2cc;strokeColor=#d6b656;opacity=40;" vertex="1" parent="1">
          <mxGeometry x="309.5" y="426" width="170" height="40" as="geometry" />
        </mxCell>
        <mxCell id="4-2N636Du5SaeoPiZ8_P-67" value="" style="rounded=0;whiteSpace=wrap;html=1;fillColor=#f8cecc;strokeColor=#b85450;opacity=40;" vertex="1" parent="1">
          <mxGeometry x="483" y="479" width="162" height="40" as="geometry" />
        </mxCell>
      </root>
    </mxGraphModel>
  </diagram>
</mxfile>
